<?xml version="1.0" encoding="UTF-8"?>
<svg width="400px" height="400px" viewBox="0 0 400 400" version="1.1" xmlns="http://www.w3.org/2000/svg" xmlns:xlink="http://www.w3.org/1999/xlink">
    <!-- Generator: Sketch 47.1 (45422) - http://www.bohemiancoding.com/sketch -->
    <title>logo_white</title>
    <desc>Created with Sketch.</desc>
    <defs>
        <polygon id="path-1" points="0.08498 0.00302411513 0 399.7891 400 400 0.08 0"></polygon>
        <polygon id="path-2" points="0.08498 0.00302411513 0 399.7891 400 400 0.08 0"></polygon>
    </defs>
    <g id="Page-1" stroke="none" stroke-width="1" fill="none" fill-rule="evenodd">
        <g id="logo_white" fill-rule="nonzero">
            <g id="Shape">
                <use fill-opacity="0.4" fill="#FFFFFF" fill-rule="evenodd" xlink:href="#path-1"></use>
                <path stroke="#FFFFFF" stroke-width="5" d="M393.962136,397.496816 L398.232056,401.76759 L400.001318,397.5 L393.962136,397.496816 Z M2.50053119,397.290418 L0.00131812749,397.2891 L2.49999994,399.789631 L2.50053119,397.290418 Z M2.5836968,6.04008518 L393.962136,397.496816 L2.50053119,397.290418 L2.5836968,6.04008518 Z"></path>
            </g>
            <g id="Shape" transform="translate(200.000000, 200.000000) scale(-1, 1) translate(-200.000000, -200.000000) ">
                <use fill="#FFFFFF" fill-rule="evenodd" xlink:href="#path-2"></use>
                <path stroke="#FFFFFF" stroke-width="5" d="M393.962136,397.496816 L398.232056,401.76759 L400.001318,397.5 L393.962136,397.496816 Z M2.50053119,397.290418 L0.00131812749,397.2891 L2.49999994,399.789631 L2.50053119,397.290418 Z M2.5836968,6.04008518 L393.962136,397.496816 L2.50053119,397.290418 L2.5836968,6.04008518 Z"></path>
            </g>
        </g>
    </g>
</svg>